<?xml version="1.0" encoding="UTF-8" standalone="no"?>
<svg
   inkscape:version="1.1.1 (3bf5ae0d25, 2021-09-20)"
   id="svg8"
   version="1.1"
   viewBox="0 0 68.342742 68.342746"
   height="258.30328"
   width="258.30328"
   sodipodi:docname="lamda-logo.svg"
   inkscape:export-filename="/home/pablo/Dev/rr/lambda-rr/favicon.png"
   inkscape:export-xdpi="95.887283"
   inkscape:export-ydpi="95.887283"
   xmlns:inkscape="http://www.inkscape.org/namespaces/inkscape"
   xmlns:sodipodi="http://sodipodi.sourceforge.net/DTD/sodipodi-0.dtd"
   xmlns="http://www.w3.org/2000/svg"
   xmlns:svg="http://www.w3.org/2000/svg"
   xmlns:rdf="http://www.w3.org/1999/02/22-rdf-syntax-ns#"
   xmlns:cc="http://creativecommons.org/ns#"
   xmlns:dc="http://purl.org/dc/elements/1.1/">
  <defs
     id="defs2">
    <inkscape:path-effect
       effect="powerclip"
       id="path-effect12377"
       is_visible="true"
       lpeversion="1"
       inverse="true"
       flatten="false"
       hide_clip="false"
       message="Use fill-rule evenodd on &lt;b&gt;fill and stroke&lt;/b&gt; dialog if no flatten result after convert clip to paths." />
    <clipPath
       clipPathUnits="userSpaceOnUse"
       id="clipPath12373">
      <path
         id="lpe_path-effect12377"
         style="opacity:0.393624;fill:#ff2a2a;fill-opacity:1;stroke:none;stroke-width:0.540364;stroke-linecap:square;paint-order:stroke markers fill"
         class="powerclip"
         d="m 126.22355,108.77966 h 76.65733 v 76.65733 h -76.65733 z m 64.98663,38.32866 a 26.657967,26.657967 0 0 0 -26.65796,-26.65796 26.657967,26.657967 0 0 0 -26.65797,26.65796 26.657967,26.657967 0 0 0 26.65797,26.65797 26.657967,26.657967 0 0 0 26.65796,-26.65797 z" />
    </clipPath>
    <filter
       inkscape:collect="always"
       style="color-interpolation-filters:sRGB"
       id="filter32409"
       x="-0.012641622"
       y="-0.012641622"
       width="1.0252832"
       height="1.0252832">
      <feGaussianBlur
         inkscape:collect="always"
         stdDeviation="0.21330378"
         id="feGaussianBlur32411" />
    </filter>
  </defs>
  <sodipodi:namedview
     showborder="true"
     units="px"
     showgrid="false"
     inkscape:document-rotation="0"
     inkscape:current-layer="layer1"
     inkscape:document-units="px"
     inkscape:cy="264.5"
     inkscape:cx="301.5"
     inkscape:zoom="1"
     inkscape:pageshadow="2"
     inkscape:pageopacity="0"
     borderopacity="1.0"
     bordercolor="#666666"
     pagecolor="#ffffff"
     id="base"
     inkscape:pagecheckerboard="0"
     showguides="true"
     inkscape:guide-bbox="true"
     fit-margin-top="0"
     fit-margin-left="0"
     fit-margin-right="0"
     fit-margin-bottom="0"
     inkscape:window-width="1920"
     inkscape:window-height="993"
     inkscape:window-x="1920"
     inkscape:window-y="0"
     inkscape:window-maximized="1" />
  <metadata
     id="metadata5">
    <rdf:RDF>
      <cc:Work
         rdf:about="">
        <dc:format>image/svg+xml</dc:format>
        <dc:type
           rdf:resource="http://purl.org/dc/dcmitype/StillImage" />
      </cc:Work>
    </rdf:RDF>
  </metadata>
  <g
     id="layer1"
     inkscape:groupmode="layer"
     inkscape:label="Capa 1"
     transform="translate(-138.63936,-112.93695)">
    <path
       style="fill:#000000;stroke-width:0.282222"
       id="path6392"
       d="" />
    <path
       style="fill:#000000;stroke-width:0.282222"
       id="path6372"
       d="" />
    <g
       id="g32793"
       transform="translate(-88.476706)">
      <path
         id="path12447"
         style="fill:#f37b21;fill-opacity:1;stroke:#000000;stroke-width:0.661458;stroke-linecap:round;stroke-linejoin:miter;stroke-miterlimit:4;stroke-dasharray:none;stroke-opacity:1;paint-order:fill markers stroke"
         d="m 155.50409,162.94674 15.36967,-24.6665 -1.77547,-4.91836 -5.92595,-0.0343 v -5.68854 h 10.05416 l 11.74088,29.72074 5.17817,-1.69202 1.71052,5.71956 -11.17186,3.0736 -7.40336,-18.70887 -11.04164,17.19469 z m 17.30665,-49.16713 a 33.328636,33.328636 0 0 0 -33.32872,33.32871 33.328636,33.328636 0 0 0 33.32872,33.32872 33.328636,33.328636 0 0 0 33.32871,-33.32872 33.328636,33.328636 0 0 0 -33.32871,-33.32871 z m 0,6.56187 a 26.766967,26.766967 0 0 1 26.76684,26.76684 26.766967,26.766967 0 0 1 -26.76684,26.76684 26.766967,26.766967 0 0 1 -26.76684,-26.76684 26.766967,26.766967 0 0 1 26.76684,-26.76684 z" />
      <path
         id="path32389"
         style="fill:none;fill-opacity:1;stroke:#000000;stroke-width:0.661458;stroke-linecap:round;stroke-linejoin:miter;stroke-miterlimit:4;stroke-dasharray:none;stroke-opacity:1;paint-order:fill markers stroke;filter:url(#filter32409)"
         d="m 155.50409,162.94674 15.36967,-24.6665 -1.77547,-4.91836 -5.92595,-0.0343 v -5.68854 h 10.05416 l 11.74088,29.72074 5.17817,-1.69202 1.71052,5.71956 -11.17186,3.0736 -7.40336,-18.70887 -11.04164,17.19469 z m 17.30665,-49.16713 a 33.328636,33.328636 0 0 0 -33.32872,33.32871 33.328636,33.328636 0 0 0 33.32872,33.32872 33.328636,33.328636 0 0 0 33.32871,-33.32872 33.328636,33.328636 0 0 0 -33.32871,-33.32871 z m 0,6.56187 a 26.766967,26.766967 0 0 1 26.76684,26.76684 26.766967,26.766967 0 0 1 -26.76684,26.76684 26.766967,26.766967 0 0 1 -26.76684,-26.76684 26.766967,26.766967 0 0 1 26.76684,-26.76684 z"
         inkscape:export-filename="/home/pablo/Dev/rr/lambda-wiki/assets/img/logo.png"
         inkscape:export-xdpi="96"
         inkscape:export-ydpi="96" />
    </g>
    <g
       id="g1519"
       transform="translate(-73.977492)"
       inkscape:export-filename="/home/pablo/Dev/rr/lambda-rr/assets/img/favicon.png"
       inkscape:export-xdpi="11.892996"
       inkscape:export-ydpi="11.892996">
      <path
         id="path1079"
         style="opacity:0.949664;fill:#000000;fill-opacity:1;stroke:#000000;stroke-width:0.264583;stroke-linecap:round;stroke-linejoin:miter;stroke-miterlimit:4;stroke-dasharray:none;stroke-opacity:1;paint-order:fill markers stroke;filter:url(#filter32409)"
         d="m 229.48158,162.94674 15.36967,-24.6665 -1.77547,-4.91836 -5.92595,-0.0343 v -5.68854 h 10.05416 l 11.74088,29.72074 5.17817,-1.69202 1.71052,5.71956 -11.17186,3.0736 -7.40336,-18.70887 -11.04164,17.19469 z m 17.30665,-49.16713 a 33.328636,33.328636 0 0 0 -33.32872,33.32871 33.328636,33.328636 0 0 0 33.32872,33.32872 33.328636,33.328636 0 0 0 33.32871,-33.32872 33.328636,33.328636 0 0 0 -33.32871,-33.32871 z m 0,6.56187 a 26.766967,26.766967 0 0 1 26.76684,26.76684 26.766967,26.766967 0 0 1 -26.76684,26.76684 26.766967,26.766967 0 0 1 -26.76684,-26.76684 26.766967,26.766967 0 0 1 26.76684,-26.76684 z"
         inkscape:export-filename="/home/pablo/Dev/rr/lambda-wiki/assets/img/logo.png"
         inkscape:export-xdpi="96"
         inkscape:export-ydpi="96" />
      <path
         id="path1077"
         style="fill:#f37b21;fill-opacity:1;stroke:none;stroke-width:0.661458;stroke-linecap:round;stroke-linejoin:miter;stroke-miterlimit:4;stroke-dasharray:none;stroke-opacity:1;paint-order:fill markers stroke"
         d="m 229.48158,162.94674 15.36967,-24.6665 -1.77547,-4.91836 -5.92595,-0.0343 v -5.68854 h 10.05416 l 11.74088,29.72074 5.17817,-1.69202 1.71052,5.71956 -11.17186,3.0736 -7.40336,-18.70887 -11.04164,17.19469 z m 17.30665,-49.16713 a 33.328636,33.328636 0 0 0 -33.32872,33.32871 33.328636,33.328636 0 0 0 33.32872,33.32872 33.328636,33.328636 0 0 0 33.32871,-33.32872 33.328636,33.328636 0 0 0 -33.32871,-33.32871 z m 0,6.56187 a 26.766967,26.766967 0 0 1 26.76684,26.76684 26.766967,26.766967 0 0 1 -26.76684,26.76684 26.766967,26.766967 0 0 1 -26.76684,-26.76684 26.766967,26.766967 0 0 1 26.76684,-26.76684 z" />
    </g>
  </g>
</svg>
